<?xml version="1.0" standalone="no"?><!DOCTYPE svg PUBLIC "-//W3C//DTD SVG 1.1//EN" "http://www.w3.org/Graphics/SVG/1.1/DTD/svg11.dtd"><svg t="1747444711780" class="icon" viewBox="0 0 1092 1024" version="1.1" xmlns="http://www.w3.org/2000/svg" p-id="8467" xmlns:xlink="http://www.w3.org/1999/xlink" width="213.28125" height="200"><path d="M1055.645901 450.103176H128.14071L505.436742 64.888501a38.36446 38.36446 0 0 0-0.682641-53.45084 36.521328 36.521328 0 0 0-52.426878-0.682642L13.729972 458.772725a37.818347 37.818347 0 0 0-6.485096 7.099473 37.408762 37.408762 0 0 0-7.236001 22.868495 37.135705 37.135705 0 0 0 10.512681 26.691288l441.805667 451.226122c14.335474 14.540267 37.750082 14.26721 52.426878-0.682642a38.36446 38.36446 0 0 0 0.682641-53.519104L127.662861 526.695568h927.98304a37.477026 37.477026 0 0 0 36.589592-38.227932c0-21.161891-16.383399-38.36446-36.589592-38.36446z" fill="#000000" fill-opacity=".85" p-id="8468"></path></svg>