<?xml version="1.0" standalone="no"?>
<!DOCTYPE svg PUBLIC "-//W3C//DTD SVG 1.1//EN" "http://www.w3.org/Graphics/SVG/1.1/DTD/svg11.dtd"><svg t="1745322730279"
                                                                                                       class="icon" viewBox="0 0 1024 1024" version="1.1" xmlns="http://www.w3.org/2000/svg" p-id="1930" xmlns:xlink="http://www.w3.org/1999/xlink" width="200" height="200" fill="currentColor">
    <path
            d="M521.301333 384.298667c-35.84-2.56-72.533333 9.813333-99.84 37.205333a127.573333 127.573333 0 0 0-37.162666 99.797333l-98.56 216.917334 216.874666-98.602667c35.797333 2.56 72.490667-9.813333 99.797334-37.205333a127.573333 127.573333 0 0 0 37.205333-99.84l98.56-216.874667-216.874667 98.602667z m30.293334 167.296a55.936 55.936 0 0 1-79.189334 0 55.936 55.936 0 0 1 0-79.189334 55.936 55.936 0 0 1 79.189334 0 55.936 55.936 0 0 1 0 79.189334zM512 0C229.205333 0 0 229.205333 0 512s229.205333 512 512 512 512-229.205333 512-512S794.794667 0 512 0z m0 952.021333C269.013333 952.021333 71.978667 754.944 71.978667 512S269.056 71.978667 512 71.978667 952.021333 269.056 952.021333 512 754.944 952.021333 512 952.021333z"
            fill="#000000" opacity=".65" p-id="1931"></path>
</svg>