<?xml version="1.0" standalone="no"?><!DOCTYPE svg PUBLIC "-//W3C//DTD SVG 1.1//EN" "http://www.w3.org/Graphics/SVG/1.1/DTD/svg11.dtd"><svg t="1745381535910" class="icon" viewBox="0 0 1024 1024" version="1.1" xmlns="http://www.w3.org/2000/svg" p-id="6364" xmlns:xlink="http://www.w3.org/1999/xlink" width="200" height="200"><path d="M512 512m-512 0a512 512 0 1 0 1024 0 512 512 0 1 0-1024 0Z" fill="#C7CCCE" p-id="6365"></path><path d="M182.77181 905.472c-0.060952-138.666667 73.959619-264.764952 189.72038-323.181714a246.357333 246.357333 0 0 0 288.060953 0c115.809524 58.416762 189.793524 184.515048 189.720381 323.181714 2.438095 147.504762-667.501714 149.942857-667.501714 0z" fill="#FFFFFF" p-id="6366"></path><path d="M314.172952 387.547429a202.922667 202.922667 0 1 0 405.845334 0 202.922667 202.922667 0 1 0-405.845334 0Z" fill="#FFFFFF" p-id="6367"></path></svg>