<?xml version="1.0" standalone="no"?><!DOCTYPE svg PUBLIC "-//W3C//DTD SVG 1.1//EN" "http://www.w3.org/Graphics/SVG/1.1/DTD/svg11.dtd"><svg t="1747405847173" class="icon" viewBox="0 0 1024 1024" version="1.1" xmlns="http://www.w3.org/2000/svg" p-id="6267" data-spm-anchor-id="a313x.search_index.0.i12.38ab3a8146dCYC" xmlns:xlink="http://www.w3.org/1999/xlink" width="200" height="200"><path d="M515.938462 43.118277a472.615385 472.615385 0 1 0 472.615384 472.615385 472.662646 472.662646 0 0 0-472.615384-472.615385zM297.046646 381.416369a54.720985 54.720985 0 1 1-54.728861 54.720985 54.689477 54.689477 0 0 1 54.728861-54.720985z m480.177231 217.8048C759.9104 703.5904 649.365662 784.384 515.938462 784.384S271.966523 703.5904 254.653046 599.213292a24.946215 24.946215 0 0 1 40.495262-23.079384 23.8592 23.8592 0 0 1 8.459815 14.525046C316.652308 671.649477 406.890338 734.633354 515.938462 734.633354s199.286154-63.015385 212.330338-143.9744a24.512985 24.512985 0 0 1 24.379077-20.196431 24.843815 24.843815 0 0 1 24.875323 24.6784 28.112738 28.112738 0 0 1-0.299323 4.072369z m-42.3936-108.354954a54.720985 54.720985 0 1 1 54.728861-54.720984 54.689477 54.689477 0 0 1-54.728861 54.720984z" fill="#4f46e5" p-id="6268"></path></svg>