<?xml version="1.0" standalone="no"?><!DOCTYPE svg PUBLIC "-//W3C//DTD SVG 1.1//EN" "http://www.w3.org/Graphics/SVG/1.1/DTD/svg11.dtd"><svg t="1747405812891" class="icon" viewBox="0 0 1079 1024" version="1.1" xmlns="http://www.w3.org/2000/svg" p-id="5171" xmlns:xlink="http://www.w3.org/1999/xlink" width="210.7421875" height="200"><path d="M915.601067 192.981333H432.4352c-27.528533 0-50.048 22.5792-50.048 50.167467s22.528 50.176 50.048 50.176h483.165867c27.537067 0 50.048-22.5792 50.048-50.176s-22.519467-50.167467-50.048-50.167467zM276.974933 203.989333l-42.769066-6.2208c-3.4048-0.7168-6.3488-2.926933-7.560534-5.777066l-18.926933-40.5248c-7.2448-15.786667-28.475733-15.786667-35.7376 0.034133l-18.8416 40.328533c-1.8176 3.396267-4.5568 5.614933-7.4496 5.9136l-42.862933 6.229334c-16.520533 2.747733-23.04 23.3984-11.255467 35.694933l30.8224 31.104c2.4832 2.594133 3.6608 6.075733 3.0464 9.2416l-7.466667 44.091733c-2.645333 17.237333 14.532267 30.2848 29.098667 21.998934l38.1184-20.650667c3.089067-1.783467 6.229333-1.783467 9.198933-0.068267l38.331734 20.770134c14.472533 8.234667 31.650133-4.8128 29.021866-21.9648l-7.458133-44.0576c-0.315733-3.447467 0.7936-7.022933 3.089067-9.4208l30.702933-30.984534c11.835733-12.347733 5.3248-32.989867-11.101867-35.7376zM915.601067 469.5552H432.4352c-27.528533 0-50.048 22.5792-50.048 50.158933 0 27.588267 22.528 50.176 50.048 50.176h483.165867c27.537067 0 50.048-22.5792 50.048-50.176 0-27.579733-22.519467-50.158933-50.048-50.158933zM276.974933 477.550933l-42.769066-6.2208c-3.4048-0.725333-6.3488-2.935467-7.560534-5.777066l-18.926933-40.5248c-7.2448-15.7952-28.475733-15.7952-35.7376 0.034133l-18.8416 40.328533c-1.8176 3.396267-4.5568 5.614933-7.4496 5.9136l-42.862933 6.229334c-16.520533 2.747733-23.04 23.3984-11.255467 35.677866l30.8224 31.104c2.4832 2.5856 3.6608 6.075733 3.0464 9.233067l-7.466667 44.100267c-2.645333 17.237333 14.532267 30.2848 29.098667 21.998933l38.1184-20.650667c3.089067-1.783467 6.229333-1.783467 9.198933-0.068266l38.331734 20.770133c14.472533 8.234667 31.650133-4.8128 29.021866-21.9648l-7.458133-44.066133c-0.315733-3.438933 0.7936-7.0144 3.089067-9.412267l30.702933-30.976c11.835733-12.347733 5.3248-32.9984-11.101867-35.729067zM915.601067 760.149333H432.4352c-27.528533 0-50.048 22.5792-50.048 50.167467s22.528 50.176 50.048 50.176h483.165867c27.537067 0 50.048-22.5792 50.048-50.176s-22.519467-50.167467-50.048-50.167467zM276.974933 762.103467l-42.769066-6.2208c-3.4048-0.7168-6.3488-2.926933-7.560534-5.777067l-18.926933-40.5248c-7.2448-15.786667-28.475733-15.786667-35.7376 0.042667l-18.8416 40.328533c-1.8176 3.396267-4.5568 5.6064-7.4496 5.905067l-42.862933 6.229333c-16.520533 2.756267-23.04 23.3984-11.255467 35.694933l30.8224 31.104c2.4832 2.594133 3.6608 6.084267 3.0464 9.2416l-7.466667 44.091734c-2.645333 17.237333 14.532267 30.2848 29.098667 21.998933l38.1184-20.642133c3.089067-1.792 6.229333-1.792 9.198933-0.0768l38.331734 20.770133c14.472533 8.234667 31.650133-4.8128 29.021866-21.9648l-7.458133-44.0576c-0.315733-3.447467 0.7936-7.022933 3.089067-9.4208l30.702933-30.984533c11.835733-12.356267 5.3248-32.9984-11.101867-35.7376z" fill="#4f46e5" p-id="5172"></path></svg>