<?xml version="1.0" standalone="no"?><!DOCTYPE svg PUBLIC "-//W3C//DTD SVG 1.1//EN" "http://www.w3.org/Graphics/SVG/1.1/DTD/svg11.dtd"><svg t="1747405174752" class="icon" viewBox="0 0 1024 1024" version="1.1" xmlns="http://www.w3.org/2000/svg" p-id="3040" xmlns:xlink="http://www.w3.org/1999/xlink" width="200" height="200"><path d="M972.2 391.2l-46-46v-69c0-97.8-74.8-172.6-172.6-172.6h-69l-51.8-51.8c-69-69-178.4-69-241.6 0l-51.8 51.8h-63.2c-97.8 0-172.6 74.8-172.6 172.6v63.2l-51.8 51.8c-69 63.2-69 172.6 0 241.6l51.8 51.8v69c0 97.8 74.8 172.6 172.6 172.6h69l46 46c63.2 69 172.6 69 241.6 0l46-46h74.8c97.8 0 172.6-74.8 172.6-172.6v-74.8l46-46c69-63.2 69-172.6 0-241.6z m-603.2-13.4v345H288V442h-53.8l70.2-169h85.4l-43.6 104.8h22.8z m177.8 239.4v13l-48.2 92.4h-94.4l55-105.4v-212h-58.2V346h58.2v-73.6h87.4V346h120.8l-31-74.2h94.4l55.8 133.4h-240v212zM762 722.6h-72.8c-9.8 0-18.6-1.8-27-5.4-8.2-3.6-15.6-8.4-21.8-14.6-6.4-6.2-11.2-13.6-14.8-21.8-3.6-8.4-5.4-17.2-5.4-26.8V444.4h87.4v197.2c0 5.4 1.8 10 5.6 13.8 3.8 3.8 8.6 5.6 14.6 5.6h62L762 722.6z" fill="#4f46e5" p-id="3041"></path></svg>