<?xml version="1.0" standalone="no"?><!DOCTYPE svg PUBLIC "-//W3C//DTD SVG 1.1//EN" "http://www.w3.org/Graphics/SVG/1.1/DTD/svg11.dtd"><svg t="1747405875424" class="icon" viewBox="0 0 1024 1024" version="1.1" xmlns="http://www.w3.org/2000/svg" p-id="7293" xmlns:xlink="http://www.w3.org/1999/xlink" width="200" height="200"><path d="M512.03643425 153.26294428a255.06771913 255.06771913 0 0 0-255.37250566 254.24094189c0 58.90646192 32.18965273 116.74231735 63.33252142 172.68078979A602.0947637 602.0947637 0 0 1 363.02038512 667.54628054c9.03569226 25.19638054 15.99112889 48.49607802 22.13240082 69.07161525C407.6018838 811.52739777 425.2339553 870.7372449 512.03643425 870.7372449s104.45907352-59.02767586 126.83460219-133.76621714c6.08031463-20.49075754 13.08479737-43.70497535 22.1569239-68.93778944a612.35800997 612.35800997 0 0 1 42.8901093-87.20395637c31.17930292-56.19421286 63.4173011-114.30963111 63.4173011-173.31278393A255.06771913 255.06771913 0 0 0 512.03643425 153.26294428z m0 668.74700523c-25.22090359 0-39.60682344-6.20222924-50.92876426-23.10491438H563.04997823c-11.33385203 16.91529768-25.73168307 23.11682557-51.01354398 23.11682557z m67.57641032-59.58680079H444.55741548a650.56631866 650.56631866 0 0 1-4.03719392-12.16062926h143.14172814a676.44233744 676.44233744 0 0 1-4.04980577 12.1480174z m15.03052584-48.11982432a18.33833476 18.33833476 0 0 0-4.35389165-0.58364868H429.39306383c-2.34720588-7.80673691-4.77849082-15.80825695-7.45500625-24.32125783h180.35440156c-2.7605945 8.65873789-5.2535374 16.90338648-7.64908873 24.89299532z m66.46936962-157.00495732a757.53094693 757.53094693 0 0 0-41.73472315 83.37275611H404.93798018a740.67660656 740.67660656 0 0 0-42.11167752-84.11405299c-28.11532319-50.50346443-57.15481521-102.72073933-57.15481522-149.02866099a206.40138106 206.40138106 0 0 1 412.7908509 0c-0.03643425 46.42913561-29.16140661 98.95119702-57.34889765 149.75804668zM503.85204229 253.34500372a151.1075146 151.1075146 0 0 0-151.24063975 150.60864629 24.45508364 24.45508364 0 0 0 48.90946666 0 102.23378224 102.23378224 0 0 1 102.33117309-101.90587396 24.3576921 24.3576921 0 1 0 0-48.71538421z" p-id="7294" fill="#4f46e5"></path></svg>