<?xml version="1.0" standalone="no"?><!DOCTYPE svg PUBLIC "-//W3C//DTD SVG 1.1//EN" "http://www.w3.org/Graphics/SVG/1.1/DTD/svg11.dtd"><svg t="1745322951595" class="icon" viewBox="0 0 1024 1024" version="1.1" xmlns="http://www.w3.org/2000/svg" p-id="4191" xmlns:xlink="http://www.w3.org/1999/xlink" width="200" height="200"><path d="M719.957333 244.821333a37.461333 37.461333 0 1 1 0 74.837334h-266.112a37.461333 37.461333 0 1 1 0-74.837334h266.112z m0 149.717334a37.461333 37.461333 0 1 1 0 74.837333h-266.112a37.461333 37.461333 0 1 1 0-74.837333h266.112z m-151.68 149.76a37.461333 37.461333 0 1 1 0 74.837333h-114.432a37.461333 37.461333 0 1 1 0-74.88h114.432z" fill="#949FB7" p-id="4192"></path><path d="M872.064 551.765333a37.461333 37.461333 0 0 0 37.504-37.461333V192.426667A150.058667 150.058667 0 0 0 759.552 42.666667H414.464a150.058667 150.058667 0 0 0-150.016 149.589333 150.058667 150.058667 0 0 0-150.016 149.76v509.013333a150.058667 150.058667 0 0 0 150.016 149.76h363.818667a150.058667 150.058667 0 0 0 150.016-149.76v-1.109333a150.058667 150.058667 0 0 0 131.285333-148.565333 37.461333 37.461333 0 0 0-75.008 0c0 41.301333-33.664 74.88-75.008 74.88l-345.045333 0.085333c-20.053333 0-38.869333-7.808-53.077334-21.930667a74.282667 74.282667 0 0 1-21.973333-52.906666V192.341333c0-41.258667 33.706667-74.837333 75.008-74.837333h345.088c41.344 0 75.008 33.578667 75.008 74.837333v321.92c0 20.693333 16.768 37.461333 37.504 37.461334zM414.464 851.157333h0.042667l288.768-0.042666c0 41.258667-33.664 74.794667-75.008 74.794666H264.448c-41.344 0-75.008-33.578667-75.008-74.837333V341.973333c0-41.258667 33.664-74.837333 75.008-74.837333v434.346667c0 39.978667 15.616 77.568 43.946667 105.813333a149.162667 149.162667 0 0 0 106.069333 43.861333z" fill="#949FB7" p-id="4193"></path></svg>