<?xml version="1.0" standalone="no"?><!DOCTYPE svg PUBLIC "-//W3C//DTD SVG 1.1//EN" "http://www.w3.org/Graphics/SVG/1.1/DTD/svg11.dtd"><svg t="1745383409037" class="icon" viewBox="0 0 1024 1024" version="1.1" xmlns="http://www.w3.org/2000/svg" p-id="7383" xmlns:xlink="http://www.w3.org/1999/xlink" width="200" height="200"><path d="M512 0c59.446205 0 111.434215 32.903804 134.101279 81.089596l4.752772 11.69913 11.772249 4.606532c118.89241 49.575064 201.225038 154.794116 213.436006 276.172591l1.169913 15.940065 0.365598 15.428228v181.263397l4.825891 6.727c36.559782 53.011683 59.226846 113.189084 66.100085 176.364387l1.68175 21.204673 0.511837 19.449804V877.43476H718.855245a219.43181 219.43181 0 0 1-413.71049 0H73.28262v-67.489357c0-78.018574 23.983217-152.819887 68.293672-217.165103L146.402183 586.199539V404.936142c0-129.056029 79.261607-244.219342 199.762647-300.813884l15.20887-6.727 11.772249-4.752771 4.460294-10.967935C396.982927 40.069521 438.3686 9.505543 487.651185 1.974228l12.503446-1.462391L512 0z m126.643084 877.43476l-253.286168 0.07312a146.239127 146.239127 0 0 0 247.144124 9.798021L638.569964 877.43476zM512 73.119563c-32.830684 0-61.127955 19.815402-70.048542 47.527717l-1.974228 7.677554-3.582858 19.449804-20.473478 6.507641c-111.726693 35.316749-189.672147 128.836671-195.96043 236.980504L219.521747 405.447979v199.104571l-6.580761 8.628108a311.48934 311.48934 0 0 0-65.953846 172.269691L146.402183 804.315197h731.195634c0-57.252618-15.940065-112.311649-45.699727-161.009279l-10.382978-16.013184-10.309859-14.038956L804.478253 604.625669V405.447979c0-109.313747-73.265802-205.97781-181.921473-246.19357l-14.404554-4.899011-20.473478-6.507641-3.582859-19.376684C578.246324 96.737182 547.828586 73.119563 512 73.119563z" fill="#1F2E4D" p-id="7384"></path></svg>